<?xml version="1.0" encoding="utf-8"?>
<!-- Generator: Adobe Illustrator 15.0.2, SVG Export Plug-In . SVG Version: 6.00 Build 0)  -->
<!DOCTYPE svg PUBLIC "-//W3C//DTD SVG 1.1//EN" "http://www.w3.org/Graphics/SVG/1.1/DTD/svg11.dtd">
<svg version="1.1" id="layer_1" xmlns="http://www.w3.org/2000/svg" xmlns:xlink="http://www.w3.org/1999/xlink" x="0px" y="0px"
	 width="1159px" height="771px" viewBox="0 0 1159 771" style="enable-background:new 0 0 1159 771;" xml:space="preserve">
<style type="text/css">
<![CDATA[
	.st0{fill:#474D63;}
	.st1{opacity:0.46;fill:#FCFCFE;}
	.st2{fill:#7CB3C1;}
	.st3{fill:#ADD6DB;}
	.st4{fill:#E25A40;}
	.st5{clip-path:url(#SVGID_2_);fill:#ADD6DB;}
	.st6{fill:#EADACE;}
	.st7{fill:#EBFBFF;}
	.st8{fill:#EE1800;}
	.st9{opacity:0.46;clip-path:url(#SVGID_2_);fill:#FCFCFE;}
	.st10{fill:#F06A4A;}
	.st11{clip-path:url(#SVGID_2_);fill:#EBFBFF;}
	.st12{fill:#F4A300;}
	.st13{fill:#F5E9DF;}
	.st14{clip-path:url(#SVGID_2_);}
	.st15{fill:url(#SVGID_3_);}
	.st16{fill:url(#SVGID_4_);}
	.st17{fill:#C5E6ED;}
	.st18{fill:#2E3248;}
	.st19{fill:#FCFCFE;}
	.st20{fill:#FF5548;}
	.st21{fill:#FFBA31;}
	.st22{fill:#FFFFFF;}
	.st23{fill:#669FAD;}
	.st24{fill:#9CC6D4;}
	.st25{clip-path:url(#SVGID_2_);fill:#FCFCFE;}
	.st26{fill:#D07D73;}
	.st27{fill:#3C4159;}
	.st28{fill:#D7F2F9;}
	.st29{fill:#A2A54C;}
	.st30{fill:#76B1C1;}
	.st31{fill:#DDDA7A;}
]]>
</style>
<g>
	<defs>
		<rect id="SVGID_1_" width="1159" height="771"/>
	</defs>
	<clipPath id="SVGID_2_">
		<use xlink:href="#SVGID_1_"  style="overflow:visible;"/>
	</clipPath>
	<rect class="st11" width="1159" height="771"/>
	<g class="st14">
		<polygon class="st17" points="733.7,265.7 733,664.3 768.4,664.4 769.2,250.3 733.4,265.7 		"/>
		<polygon class="st28" points="639.2,664.1 733,664.3 733.7,265.7 639.2,265.5 		"/>
		<polygon class="st1" points="733.7,265.7 698.4,95.4 639.2,265.5 		"/>
		<polygon class="st28" points="698.4,95.4 769.2,250.3 733.7,265.7 		"/>
	</g>
	<path class="st25" d="M962.2,89.5H962c-10.8-8.7-24.3-11.5-37.3-7.4c1.2-3.9,3.2-7.6,1.5-11.9c-1.8-4.3-6.6-6.8-10.8-8
		c-7.7-2.2-16-1.1-22,3.6c-2.2-10.4-11-19.2-22.4-18.7c-12,0.5-20.4,11.4-20.7,22.7c-6.3-1.7-13.3-2.4-19.6-0.3
		c-5.4,1.8-6.9,7.3-10.8,9c-5.4,2.4-11.6-1.8-16.4,3.3c-2.1,2.2-2.6,4.8-1.9,7.3c1,2,2.6,3.7,4.4,5.1h154.5c1.1,0.6,2.3,0.3,3-0.4
		C965.1,92.7,964.7,89.5,962.2,89.5z"/>
	<path class="st25" d="M755.9,53.7h-0.1c-6.2-5-14-6.6-21.6-4.3c0.7-2.3,1.8-4.4,0.8-6.9c-1-2.5-3.8-3.9-6.2-4.6
		c-4.5-1.2-9.3-0.7-12.8,2.1c-1.3-6-6.4-11.1-13-10.8c-7,0.3-11.8,6.6-12,13.1c-3.7-1-7.7-1.4-11.3-0.2c-3.1,1.1-4,4.2-6.3,5.2
		c-3.1,1.4-6.7-1-9.5,1.9c-1.2,1.3-1.5,2.8-1.1,4.2c0.6,1.1,1.5,2.1,2.5,2.9h89.5c0.6,0.4,1.3,0.2,1.7-0.2
		C757.6,55.6,757.4,53.7,755.9,53.7z"/>
	<path class="st25" d="M109.8,176.8h-0.1c-5.6-4.5-12.5-5.9-19.3-3.8c0.6-2,1.6-4,0.8-6.1c-0.9-2.2-3.4-3.5-5.6-4.1
		c-4-1.1-8.3-0.6-11.4,1.9c-1.1-5.4-5.7-9.9-11.6-9.7c-6.2,0.3-10.5,5.9-10.7,11.7c-3.3-0.9-6.9-1.3-10.1-0.2
		c-2.8,1-3.5,3.8-5.6,4.7c-2.8,1.2-6-0.9-8.5,1.7c-1.1,1.1-1.3,2.5-1,3.8c0.5,1,1.3,1.9,2.3,2.6h79.9c0.6,0.3,1.2,0.2,1.6-0.2
		C111.3,178.4,111.1,176.8,109.8,176.8z"/>
	<path class="st25" d="M177.8,74.3h-0.1c-6.6-5.3-14.9-7-22.9-4.6c0.8-2.4,2-4.7,0.9-7.3c-1.1-2.6-4-4.2-6.6-4.9
		c-4.7-1.3-9.8-0.7-13.5,2.2c-1.3-6.4-6.8-11.8-13.7-11.5c-7.4,0.3-12.5,7-12.7,13.9c-3.9-1.1-8.2-1.5-12-0.2
		c-3.3,1.1-4.2,4.5-6.6,5.5c-3.3,1.5-7.1-1.1-10.1,2c-1.3,1.4-1.6,2.9-1.1,4.5c0.6,1.2,1.6,2.3,2.7,3.1h94.8
		c0.7,0.4,1.4,0.2,1.8-0.3C179.6,76.3,179.4,74.3,177.8,74.3z"/>
	<path class="st25" d="M608.6,103.2h-0.2c-9-7.3-20.3-9.6-31.2-6.2c1-3.3,2.7-6.4,1.2-9.9c-1.5-3.6-5.5-5.7-9-6.7
		c-6.4-1.8-13.4-0.9-18.4,3c-1.8-8.7-9.2-16.1-18.7-15.7c-10.1,0.5-17.1,9.5-17.3,19c-5.3-1.4-11.1-2-16.4-0.2
		c-4.5,1.5-5.7,6.1-9.1,7.5c-4.5,2-9.7-1.5-13.7,2.8c-1.7,1.9-2.2,4-1.6,6.1c0.9,1.6,2.1,3.1,3.7,4.3h129.2c0.9,0.5,1.9,0.3,2.5-0.3
		C611,105.9,610.7,103.2,608.6,103.2z"/>
	<g class="st14">
		<polygon class="st17" points="179.2,82.9 180,620.1 217.2,620 216.4,191.9 216.8,191.9 		"/>
		<polygon class="st28" points="315.6,191.7 315.6,619.8 217.2,620 216.4,191.9 		"/>
		<polygon class="st19" points="216.4,191.9 179.2,82.9 280.4,82.9 315.6,191.4 315.6,191.6 		"/>
	</g>
	<g class="st14">
		<rect x="-47.6" y="253.5" class="st17" width="196.5" height="415.3"/>
		<rect x="-61.6" y="243.4" class="st28" width="224.5" height="20.2"/>
		<rect x="27.9" y="253.5" class="st28" width="196.5" height="415.3"/>
		<g>
			<rect x="27.9" y="315.2" class="st22" width="196.5" height="8.6"/>
			<rect x="27.9" y="385.6" class="st22" width="196.5" height="8.6"/>
			<rect x="27.9" y="455.9" class="st22" width="196.5" height="8.6"/>
			<rect x="27.9" y="526.3" class="st22" width="196.5" height="8.6"/>
			<rect x="27.9" y="596.7" class="st22" width="196.5" height="8.6"/>
		</g>
		<rect x="85.5" y="253.5" class="st22" width="8.6" height="415.3"/>
		<rect x="158.1" y="253.5" class="st22" width="8.6" height="415.3"/>
		<rect x="13.9" y="243.4" class="st17" width="224.5" height="20.2"/>
	</g>
	<g class="st14">
		<g id="XMLID_97_">
			<g id="XMLID_99_">
				<rect x="1004.6" y="65.8" class="st28" width="69.8" height="551.9"/>
			</g>
			<g id="XMLID_98_">
				<polygon class="st19" points="1092.9,65.8 1074.4,65.8 1074.4,617.7 1214.4,617.7 1214.4,117.5 				"/>
			</g>
		</g>
		<rect x="1074.4" y="139.2" class="st7" width="103.9" height="27.2"/>
		<rect x="1110.1" y="213.5" class="st7" width="103.9" height="27.2"/>
		<rect x="1013.5" y="252.1" class="st7" width="43" height="15.5"/>
		<rect x="1013.5" y="450.4" class="st7" width="43" height="15.5"/>
		<rect x="1021.6" y="94.5" class="st7" width="51.9" height="27.2"/>
		<rect x="1021.6" y="309.8" class="st7" width="51.9" height="27.2"/>
		<rect x="1150.9" y="452.4" class="st7" width="51.9" height="27.2"/>
		<rect x="1073" y="347.7" class="st7" width="103.9" height="27.2"/>
	</g>
	<g class="st14">
		<g id="XMLID_94_">
			<g id="XMLID_96_">
				<rect x="467.9" y="169.7" class="st28" width="56.9" height="449.9"/>
			</g>
			<g id="XMLID_95_">
				<polygon class="st19" points="452.8,169.7 467.9,169.7 467.9,619.6 353.8,619.6 353.8,211.9 				"/>
			</g>
		</g>
		<rect x="383.2" y="229.6" class="st7" width="84.7" height="22.1"/>
		<rect x="354.1" y="290.2" class="st7" width="84.7" height="22.1"/>
		<rect x="482.4" y="321.6" class="st7" width="35.1" height="12.7"/>
		<rect x="482.4" y="483.3" class="st7" width="35.1" height="12.7"/>
		<rect x="468.6" y="193.1" class="st7" width="42.3" height="22.1"/>
		<rect x="468.6" y="368.6" class="st7" width="42.3" height="22.1"/>
		<rect x="363.1" y="484.9" class="st7" width="42.3" height="22.1"/>
		<rect x="384.3" y="399.5" class="st7" width="84.7" height="22.1"/>
	</g>
	<polygon class="st9" points="340,606.3 239.3,606.3 63.8,0 164.5,0 	"/>
	<polygon class="st9" points="443.2,606.3 399.4,606.3 223.9,0 267.7,0 	"/>
	<polygon class="st9" points="690.4,606.3 589.7,606.3 414.2,0 514.9,0 	"/>
	<polygon class="st9" points="1159.7,606.3 1059,606.3 883.5,0 984.2,0 	"/>
	<polygon class="st9" points="793.6,606.3 749.8,606.3 574.3,0 618.2,0 	"/>
	<g class="st14">
		<polygon class="st17" points="916.3,251 915.4,649.6 959.3,649.7 960.3,235.5 915.9,251 		"/>
		<polygon class="st28" points="799.1,649.4 915.4,649.6 916.3,251 799.1,250.8 		"/>
		<polygon class="st22" points="799.1,250.5 799.1,250.7 916.3,251 960.2,235.5 840.7,235.5 		"/>
	</g>
	<g class="st14">
		<rect y="631.7" class="st28" width="1159" height="139.3"/>
		<ellipse class="st17" cx="551.3" cy="700.7" rx="590.8" ry="22.3"/>
		<path class="st17" d="M164,645.1c0,6.6-115.1,12-215.1,12c-100,0-181.1-5.4-181.1-12c0-6.6,81.1-12,181.1-12
			C48.9,633.1,164,638.5,164,645.1z"/>
		<rect y="605.3" class="st17" width="1159" height="26.4"/>
		<rect y="626.5" class="st3" width="1159" height="5.2"/>
		<g>
			<g>
				<rect x="260.2" class="st17" width="22.4" height="606.3"/>
				<rect x="275.5" class="st3" width="7.1" height="606.3"/>
			</g>
			<g>
				<rect x="568.3" class="st17" width="22.4" height="606.3"/>
				<rect x="583.6" class="st3" width="7.1" height="606.3"/>
			</g>
			<g>
				<rect x="876.4" class="st17" width="22.4" height="606.3"/>
				<rect x="891.7" class="st3" width="7.1" height="606.3"/>
			</g>
		</g>
	</g>
	<g class="st14">
		<circle class="st28" cx="781.8" cy="99.3" r="16.3"/>
		<path class="st22" d="M781.6,109.6c3.9-0.7,9.2-3.7,10.2-7.8c0.4-1.5,2.6-0.8,2.3,0.6c-1.2,4.9-7.1,8.6-11.8,9.5
			C780.7,112.1,780.1,109.8,781.6,109.6z"/>
		
			<linearGradient id="SVGID_3_" gradientUnits="userSpaceOnUse" x1="6630.8677" y1="51.4189" x2="6630.8677" y2="-94.7451" gradientTransform="matrix(-1 0 0 1 7414.0527 0)">
			<stop  offset="0" style="stop-color:#9ED1DE"/>
			<stop  offset="1" style="stop-color:#FFFFFF;stop-opacity:0"/>
		</linearGradient>
		<path class="st15" d="M779.1,43.9V-94.7h8.2V43.9C795.1,53.9,771.2,53.9,779.1,43.9z"/>
		<path class="st17" d="M719.3,100.8c32.6-24.6,51.9-46.9,59.8-56.9h8.2c7.8,10,27.2,32.3,59.8,56.9H719.3z"/>
	</g>
	<g class="st14">
		<circle class="st28" cx="367.2" cy="99.3" r="16.3"/>
		<path class="st22" d="M366.9,109.6c3.9-0.7,9.2-3.7,10.2-7.8c0.4-1.5,2.6-0.8,2.3,0.6c-1.2,4.9-7.1,8.6-11.8,9.5
			C366.1,112.1,365.5,109.8,366.9,109.6z"/>
		
			<linearGradient id="SVGID_4_" gradientUnits="userSpaceOnUse" x1="7045.5171" y1="51.4189" x2="7045.5171" y2="-94.7451" gradientTransform="matrix(-1 0 0 1 7414.0527 0)">
			<stop  offset="0" style="stop-color:#9ED1DE"/>
			<stop  offset="1" style="stop-color:#FFFFFF;stop-opacity:0"/>
		</linearGradient>
		<path class="st16" d="M364.4,43.9V-94.7h8.2V43.9C380.5,53.9,356.6,53.9,364.4,43.9z"/>
		<path class="st17" d="M304.6,100.8c32.6-24.6,51.9-46.9,59.8-56.9h8.2c7.8,10,27.2,32.3,59.8,56.9H304.6z"/>
	</g>
	<path class="st5" d="M1215.6,466.2c-0.2-7-12.2-10.3-17.2-11.1c-1.4-0.2-2.8-0.4-4.2-0.5c-0.4,0-0.9-0.1-1.3-0.1
		c-5.1-0.3-10.5,0.2-15.7,1.3c-0.8,2.4-3,7.8-3.2,7.3c-0.9-1.9-1.6-3.9-2-6c-1.7,0.5-3.3,1-4.9,1.6c-0.1,3.5-0.8,11.5-1.1,10.9
		c-1.4-3-2.2-6.1-2.7-9.3c-1.7,0.8-3.3,1.6-4.9,2.5c-0.5,0.3-0.9,0.5-1.4,0.8c-1.7,1-3.4,2.2-4.9,3.4c-0.4,0.3-0.8,0.7-1.2,1
		c-2,1.6-3.8,3.3-5.4,5.1c-0.7,0.8-1.4,1.6-2.1,2.5c-0.5,4.2-1.3,13.5-1.7,13.1c-1.5-1.6-2.4-3.7-2.9-6c-2.3,4.4-4,9.1-4.7,14.1
		c-1,7.1,3.1,19.5,5.8,26.3c0.8,2,1.4,3.4,1.8,4.2c-0.9,2.3-1.7,4.7-2.1,7.4c-0.8,5.9-1.1,12-1,18.1h-8c-2.8-17.7-4.6-35.6-4.8-53.6
		c3.6-8.5,11.1-14.6,16.4-21.9c2.8-3.8,5.3-8,7.3-12.3c-3.1,1.1-6.3,2-9.6,2.3c-0.8,0.1,11.2-13.1,15.5-20.2
		c1.3-6.8,1.8-13.8,1.6-20.7c-3.2,2.3-6.9,3.7-11,3.7c-0.7,0,6.6-8.6,9.6-12.9c0.3-0.4,0.6-0.8,0.8-1.2c-0.6-7.7-1.4-15.6-2.8-23.2
		c-0.1-0.8-0.3-1.7-0.5-2.5c-0.4-1.9-0.8-3.8-1.2-5.7c-1-4.4-9.3-19.6-12.9-20.2c-3.7-0.6-6.3,3.7-8.4,6.2c-1.6,1.9-3.1,3.8-4.6,5.8
		c1,6.1,2.6,19.4,2.1,18.8c-2.9-3.8-5.1-8-6.7-12.5c-0.2,0.4-0.5,0.7-0.8,1.1c-6.1,8.7-12.3,18.1-16,28.1c-1.8,4.8-2.5,9.8-2.7,14.8
		c5.2,8,15.7,25.3,14.9,24.9c-5.5-3-10.1-7.1-14.4-11.5c0.1,1,0.2,2,0.3,3c0.3,2.7,0.6,5.5,0.9,8.2c-0.9-1.4-1.9-2.7-3.1-4
		c-6-6.3-13.9-11.3-21.6-15.7c-0.3-0.2-0.6-0.3-1-0.5c-0.1,3.9-0.8,7.8-2.2,11.7c-0.2,0.7-2.6-9.9-3.5-14.8
		c-1.8-0.9-3.7-1.9-5.6-2.8c-2.5-1.2-5.9-3.5-8.9-1.8c-2.9,1.6-5.6,15.9-5.3,19.5c0.1,1.6,0.3,3.1,0.6,4.7c0.1,0.7,0.2,1.4,0.3,2
		c1,6.2,2.5,12.4,4.2,18.4c0.3,0.2,0.7,0.4,1,0.6c3.8,2.2,12.5,6.1,11.8,6.4c-3.4,1.4-7,1.5-10.4,0.9c1.9,5.3,4.2,10.3,7.2,15
		c5.7,3.9,19.6,9.7,18.9,10c-2.9,0.9-5.9,1.3-8.8,1.5c3,2.6,6.2,4.8,9.7,6.8c6.7,3.7,14.7,5.8,20.2,11c3.9,10.7,6.9,21.6,9.3,32.8
		h-12.3l0,0.1c-0.7,1.5-19,42.8,6.1,81.1h-1.6c-1.3,0-2.4,1.1-2.4,2.4c0,1.3,1.1,2.4,2.4,2.4h40.2c1.3,0,2.4-1.1,2.4-2.4
		c0-1.3-1.1-2.4-2.4-2.4h-1.6c3.8-5.7,6.5-11.5,8.6-17.2v0c3-8.5,4.3-16.8,4.6-24.5c0.8-22.4-7.1-39.4-7.1-39.4h-13.1
		c0-3.6,0.1-7.2,0.3-10.9c0.2-4.9,0.7-9.8,2.5-14.3c0.2-0.1,0.4-0.3,0.6-0.5c7.8-11.1,15.5-22.7,24.5-32.8
		c7.6-8.5,17.7-12.5,28-16.4c4.7-1.8,19.4-4.9,19.5-11.5C1215.6,466.4,1215.6,466.3,1215.6,466.2z M1105.3,463.2
		c0.6,3.2,1.3,6.3,2.1,9.4c-1.8,3-3.7,5.8-6.2,8.5C1100.8,481.5,1103.2,471.4,1105.3,463.2z M1109.4,521.7c0.2,0,0.3-0.1,0.5-0.3
		c5.2-9.7,6-20,4.9-30.2c2.3,3.9,5.1,7.6,8.4,10.9c0.2,0.2,0.4,0.2,0.6,0.1c0.3,16.9,2,33.7,4.7,50.4h-0.7h-9.8
		C1115.8,542.2,1113,531.8,1109.4,521.7z"/>
	<g class="st14">
		<path class="st30" d="M156.6,399.8c-6.1-1.3-12.3,2.8-15.5,7.6c-0.4,0.6-0.4,1.2-0.2,1.7c-2.7,1.5-5.3,3.2-7.8,4.9
			c0.5-1.8,0.7-3.8,0.5-5.6c-0.5-3-2.8-5.9-6.1-5.6c-3,0.2-5,3.2-5,6c-0.1,3.6,2,7.1,4.2,9.9c-4.3,3.3-8.3,6.9-12.1,10.7
			c1.5-5.5,0.2-12-6.3-12.5c-9.5-0.7-2.3,14.6,0,18.2c0,0,0.1,0.1,0.1,0.1c-0.1,0.3-0.2,0.6-0.1,1c-2.7,3.1-5.2,6.3-7.6,9.6
			c-1.8-5.6-5.5-15.8-10.6-11.3c-6,5.4,3.1,13.4,6.6,17c-2.1,3.2-4,6.5-5.8,9.9c-3-2.6-3.2-7.6-6-10.5c-2.6-2.7-8.3-4.3-11.1-1
			c-2.7,3.1,0.5,8.3,2.5,10.9c2.8,3.6,6.9,6.1,11.4,7c-1.9,4.1-3.5,8.4-5,12.7c-1.4-3.4-3.1-7.3-6.1-9c-2.8-1.7-6.6-1.1-8.1,2
			c-3.6,7,5.2,14.1,11.2,16.7c0,0.1,0,0.2,0,0.3c0,0,0,0,0,0c-0.9,3.5-1.7,7-2.3,10.6c-1.5-1.9-3.2-3.7-5.4-4.9
			c-2.6-1.4-6.3-2.1-8.7,0c-2.4,2.1-1.5,5.6,0.7,7.5c2.9,2.5,7.5,3.6,11.2,4.2c0.5,0.1,0.9,0,1.3-0.2c-1,8.4-1.2,16.9-0.5,25.4
			c0.2,2.6,4.2,2.6,4,0c-0.7-8.8-0.5-17.5,0.6-26c3.6-0.1,21.1-1.3,16-7.5c-1.8-2.2-6.7-2.1-9.2-1.6c-2.6,0.5-4.2,2.1-6,3.6
			c0.6-3.3,1.3-6.7,2.1-9.9c5.5-1.1,21.9-4.8,15.8-10.6c-2.3-2.2-7.3-1.7-10-0.7c-1.1,0.4-2,1-2.9,1.7c1.5-4.4,3.2-8.7,5.1-12.8
			c4,1.2,21.2,3.4,19.3-4.9c-1.3-5.5-10.4-3.2-16.4-1c1.6-3.1,3.4-6.1,5.2-9.1c0,0,0,0,0.1,0c3.4,3.6,6.6,4,11.5,3.3
			c3.3-0.5,9.3-1.2,10.3-5.3c1-4.3-3.8-4.9-6.8-5.3c-4.2-0.5-7.7,0.2-11.2,1.6c2.5-3.4,5.1-6.8,7.9-10c3.4,1.5,6.9,2.9,10.6,2.9
			c2.9,0,7.4-0.7,7.9-4.2c1-6.2-6.5-6.1-12.6-5c3.4-3.4,7-6.6,10.8-9.6c0.1,0.1,0.2,0.3,0.3,0.4c2.8,2.1,5.8,4.2,9.3,4.7
			c3.2,0.5,5.9-0.6,8.7-2c0.8-0.4,1.2-1.5,0.9-2.3c-1.4-4.5-7.9-5.4-13.1-5.3c2.8-2,5.8-3.9,8.8-5.6c0.1-0.1,0.2-0.2,0.3-0.2
			c1.7,0.8,4,1.2,5.3,1.4c3,0.3,5.7-0.6,7.9-2.6c1.7-1.5,4.2-4.2,4.4-6.6C161,402,158.8,400.2,156.6,399.8z"/>
		<path class="st30" d="M-37,399.8c6.1-1.3,12.3,2.8,15.5,7.6c0.4,0.6,0.4,1.2,0.2,1.7c2.7,1.5,5.3,3.2,7.8,4.9
			c-0.5-1.8-0.7-3.8-0.5-5.6c0.5-3,2.8-5.9,6.1-5.6c3,0.2,5,3.2,5,6c0.1,3.6-2,7.1-4.2,9.9c4.3,3.3,8.3,6.9,12.1,10.7
			c-1.5-5.5-0.2-12,6.3-12.5c9.5-0.7,2.3,14.6,0,18.2c0,0-0.1,0.1-0.1,0.1c0.1,0.3,0.2,0.6,0.1,1c2.7,3.1,5.2,6.3,7.6,9.6
			c1.8-5.6,5.5-15.8,10.6-11.3c6,5.4-3.1,13.4-6.6,17c2.1,3.2,4,6.5,5.8,9.9c3-2.6,3.2-7.6,6-10.5c2.6-2.7,8.3-4.3,11.1-1
			c2.7,3.1-0.5,8.3-2.5,10.9c-2.8,3.6-6.9,6.1-11.4,7c1.9,4.1,3.5,8.4,5,12.7c1.4-3.4,3.1-7.3,6.1-9c2.8-1.7,6.6-1.1,8.1,2
			c3.6,7-5.2,14.1-11.2,16.7c0,0.1,0,0.2,0,0.3c0,0,0,0,0,0c0.9,3.5,1.7,7,2.3,10.6c1.5-1.9,3.2-3.7,5.4-4.9c2.6-1.4,6.3-2.1,8.7,0
			c2.4,2.1,1.5,5.6-0.7,7.5c-2.9,2.5-7.5,3.6-11.2,4.2c-0.5,0.1-0.9,0-1.3-0.2c1,8.4,1.2,16.9,0.5,25.4c-0.2,2.6-4.2,2.6-4,0
			c0.7-8.8,0.5-17.5-0.6-26c-3.6-0.1-21.1-1.3-16-7.5c1.8-2.2,6.7-2.1,9.2-1.6c2.6,0.5,4.2,2.1,6,3.6c-0.6-3.3-1.3-6.7-2.1-9.9
			c-5.5-1.1-21.9-4.8-15.8-10.6c2.3-2.2,7.3-1.7,10-0.7c1.1,0.4,2,1,2.9,1.7c-1.5-4.4-3.2-8.7-5.1-12.8c-4,1.2-21.2,3.4-19.3-4.9
			c1.3-5.5,10.4-3.2,16.4-1c-1.6-3.1-3.4-6.1-5.2-9.1c0,0,0,0-0.1,0c-3.4,3.6-6.6,4-11.5,3.3c-3.3-0.5-9.3-1.2-10.3-5.3
			c-1-4.3,3.8-4.9,6.8-5.3c4.2-0.5,7.7,0.2,11.2,1.6c-2.5-3.4-5.1-6.8-7.9-10c-3.4,1.5-6.9,2.9-10.6,2.9c-2.9,0-7.4-0.7-7.9-4.2
			c-1-6.2,6.5-6.1,12.6-5c-3.4-3.4-7-6.6-10.8-9.6c-0.1,0.1-0.2,0.3-0.3,0.4c-2.8,2.1-5.8,4.2-9.3,4.7c-3.2,0.5-5.9-0.6-8.7-2
			c-0.8-0.4-1.2-1.5-0.9-2.3c1.4-4.5,7.9-5.4,13.1-5.3c-2.8-2-5.8-3.9-8.8-5.6c-0.1-0.1-0.2-0.2-0.3-0.2c-1.7,0.8-4,1.2-5.3,1.4
			c-3,0.3-5.7-0.6-7.9-2.6c-1.7-1.5-4.2-4.2-4.4-6.6C-41.4,402-39.2,400.2-37,399.8z"/>
		<path class="st24" d="M97.9,368.8c-1.6,0.2-3.2,0.6-4.7,1.2c1.1-1.7,2.2-3.3,3.3-5c0.6,0.2,1.4,0.1,1.9-0.5
			c3.2-3.9,16.4-17.2,6.3-21.1c-3.3-1.3-6.9,0.4-8.7,3.2c-2.9,4.4-1.5,9.8-3,14.6c-0.2,0.6-0.1,1.1,0.2,1.5
			c-1.5,2.1-2.9,4.2-4.3,6.4c-0.5-2.9-1.4-6-3.3-8c-1.9-2.1-5.1-2.1-6.6,0.4c-3.1,5.1,1.4,11.3,6.1,13.6c-1.4,2.3-2.7,4.7-4,7.1
			c-1.4-2.2-2.8-4.6-4.8-6.1c-2-1.5-5.1-1.9-6.9,0.1c-2,2.1-1.2,5.2,0.6,7.1c2.1,2.3,5.2,3.8,8.2,4.5c-2.3,4.5-4.3,9-6.3,13.6
			c-1.3-3.2-2.9-6.3-5.1-9c-1.6-1.8-5.6-6-8.4-4.3c-3.2,2.1-1.4,7.9,0.3,10.4c2.6,3.8,6.1,6.8,10.2,9c0.2,0.1,0.3,0.1,0.5,0.2
			c-1.4,3.6-2.6,7.2-3.8,10.9c-2.3-4.8-6.3-10.8-10.9-6.6c-6.1,5.6,3.7,11.9,7.5,14.8c0,0,0.1,0,0.1,0c0,0.5,0.1,0.9,0.5,1.3
			c-0.9,3.2-1.6,6.5-2.3,9.8c-2.5-4.7-7.5-10.5-11.2-6.1c-4.9,5.7,5.3,11.7,9.8,13.4c-0.7,4.1-1.3,8.2-1.8,12.4
			c-3.4-4.8-11-13.6-13-5.6c-1,3.9,0.9,7,3.4,9.8c2.5,2.8,5.1,5.2,8.6,6.4c-0.3,4.5-0.4,9.1-0.5,13.6c-1.6-1.9-3.5-3.5-5.6-4.9
			c-2.1-1.4-5.4-4.2-8.2-3.5c-6.4,1.5-1.9,11,0.6,13.8c2.3,2.4,9.3,6.1,13.3,4.4c0.2,4.2,0.6,8.5,1,12.7c-2.3-1.8-4.8-3.1-7.6-4
			c-1.5-0.5-4.1-1.2-6-0.8c-1.4-0.2-2.7,0.1-3.7,1.9c-4.9,8.3,13,10.9,18.4,11.6c1,6.4,2.2,12.7,3.8,19c0.6,2.5,4.5,1.4,3.9-1.1
			c-1.6-6.4-2.9-12.8-3.9-19.3c5-2,11.9-6.4,9.1-11.6c-2.6-4.8-6.9-0.9-10.1,3c-0.4-4-0.7-8-0.9-12c3.6-0.9,6.8-2.8,9.4-5.4
			c2.1-2.2,5.2-6.1,3.7-9.4c-1.5-3.2-5.6-3-8-1.1c-2.1,1.6-3.8,4-5.2,6.5c0-4.3,0.1-8.5,0.4-12.8c5.5-1.4,21.4-7.7,13.7-14
			c-4.8-3.9-9.3-1.2-12.6,2.9c0.5-4.2,1.1-8.4,1.9-12.6c3.7-1.1,8.3-1.4,11.6-3.4c2.2-1.3,4.4-4.5,3-7.1c-1.4-2.5-5.2-1.2-7.2-0.3
			c-2.2,1-4.1,2.5-6,4c0.7-3.1,1.4-6.2,2.2-9.2c5.8,0.1,16.5-1.1,14.8-7.5c-0.8-3-5.1-3.4-7.7-2.9c-1.7,0.3-3.2,1-4.6,1.9
			c1-3.1,2-6.2,3.2-9.3c4.1,0.7,9.2,1.1,12.8-0.9c2.3-1.3,6.9-5.7,5.4-8.6c-1.9-3.5-7-2.9-10-2c-1.4,0.4-2.8,0.9-4.1,1.5
			c1.7-3.9,3.5-7.8,5.4-11.6c0.1,0,0.1,0,0.2-0.1c0.8,0.6,1.9,1,2.9,1.2c3,0.6,6.3,1,9.3,0.7c1.8-0.2,3.6-1.1,3.7-3.2
			c0-1.9-1.7-3.1-3.1-4.1c-3-2-6.4-1.8-9.6-0.7c1.1-1.9,2.1-3.9,3.3-5.8c0.2-0.1,0.4-0.2,0.6-0.3c4,1.8,8.7,2.7,13.1,1.4
			c2.9-0.8,5.6-3.4,4.6-6.6C105.6,368.3,100.8,368.5,97.9,368.8z"/>
		<path class="st21" d="M103.9,579.3c-0.4,11-2.3,22.9-6.6,35.1v0c-3.3,9.4-8,18.8-14.6,28.1H34.3C-5.3,586.8,22.2,525.2,23.2,523
			l0-0.1h70.5C93.8,522.9,105.1,547.3,103.9,579.3z"/>
		<path class="st12" d="M97.3,614.5L97.3,614.5c-3.3,9.4-8,18.9-14.6,28.2H34.3C-5.3,586.8,22.2,525.2,23.2,523l0-0.1
			C23.2,522.9,8.3,676.4,97.3,614.5z"/>
		<path class="st21" d="M87.3,646.1H29.7c-1.9,0-3.4-1.5-3.4-3.4l0,0c0-1.9,1.5-3.4,3.4-3.4h57.6c1.9,0,3.4,1.5,3.4,3.4l0,0
			C90.7,644.5,89.2,646.1,87.3,646.1z"/>
	</g>
</g>
<g>
	<g>
		<g>
			<path class="st17" d="M799.2,700.2H407.1c-4.4,0-8-3.6-8-8V359.9c0-5.6,4.6-10.2,10.2-10.2H797c5.6,0,10.2,4.6,10.2,10.2v332.3
				C807.2,696.6,803.6,700.2,799.2,700.2z"/>
			<path class="st19" d="M790.6,700.2H398.5c-4.4,0-8-3.6-8-8V359.9c0-5.6,4.6-10.2,10.2-10.2h387.6c5.6,0,10.2,4.6,10.2,10.2v332.3
				C798.6,696.6,795,700.2,790.6,700.2z"/>
			<path class="st10" d="M798.6,384.9h-408v-25c0-5.6,4.6-10.2,10.2-10.2h387.6c5.6,0,10.2,4.6,10.2,10.2V384.9z"/>
			<g>
				<circle class="st22" cx="452.2" cy="367.3" r="5.4"/>
				<circle class="st22" cx="431.4" cy="367.3" r="5.4"/>
				<circle class="st22" cx="410.6" cy="367.3" r="5.4"/>
			</g>
			<polygon class="st22" points="772.8,363.3 775.5,360.6 779.3,364.5 783.1,360.6 785.8,363.3 782,367.1 785.8,371 783.1,373.6 
				779.3,369.8 775.5,373.6 772.8,371 776.6,367.1 			"/>
		</g>
	</g>
	<path class="st28" d="M774.9,681.4H418.1c-4.8,0-8.7-3.9-8.7-8.7V433.6c0-4.8,3.9-8.7,8.7-8.7h356.8c4.8,0,8.7,3.9,8.7,8.7v239.1
		C783.5,677.5,779.7,681.4,774.9,681.4z"/>
	<ellipse class="st17" cx="595.3" cy="655.7" rx="169.3" ry="7.2"/>
	<g>
		<polygon class="st17" points="417.9,402.1 510.6,402.1 510.6,399.3 417.9,399.3 		"/>
		<polygon class="st17" points="552.1,402.1 579.5,402.1 579.5,399.3 552.2,399.3 		"/>
		<polygon class="st17" points="417.7,411.9 449.1,411.9 449.2,409.2 417.8,409.2 		"/>
		<polygon class="st17" points="463.8,411.9 579.3,411.9 579.3,409.2 463.9,409.2 		"/>
	</g>
	<g>
		<polygon class="st17" points="770.8,409.2 678.1,409.2 678,411.9 770.7,411.9 		"/>
		<polygon class="st17" points="636.5,409.2 609.2,409.2 609.1,411.9 636.5,411.9 		"/>
		<polygon class="st17" points="770.9,399.3 739.5,399.3 739.5,402.1 770.9,402.1 		"/>
		<polygon class="st17" points="724.8,399.3 609.4,399.3 609.3,402.1 724.8,402.1 		"/>
	</g>
</g>
<g>
	<polygon class="st13" points="208.6,679.7 197.3,645.8 225.7,638.9 233.9,670.6 	"/>
	<g>
		<path class="st24" d="M207.3,675.8l26-7.7l42.7,9.5c4.5,1,8,4.6,8.9,9.1l0.1,0.8c0.4,2.1-1,4.2-3.1,4.6l-64.8,12.7
			c-2.2,0.4-4.3-1-4.8-3.2L207.3,675.8z"/>
		<path class="st18" d="M212.4,701.6l-0.6-3.2l72.9-13.1l0.4,2.2c0.4,2.1-1,4.2-3.1,4.6l-64.8,12.7
			C214.9,705.2,212.8,703.8,212.4,701.6z"/>
		<circle class="st2" cx="238.5" cy="676.3" r="3.4"/>
		<circle class="st2" cx="248.5" cy="678.6" r="3.4"/>
		<circle class="st2" cx="257.7" cy="680.3" r="3.4"/>
		<path class="st18" d="M238.5,677.8c-0.2,0-0.3,0-0.5-0.1c-0.8-0.3-1.2-1.1-0.9-1.9l2.3-6.3c0.3-0.8,1.1-1.2,1.9-0.9
			c0.8,0.3,1.2,1.1,0.9,1.9l-2.3,6.3C239.7,677.5,239.1,677.8,238.5,677.8z"/>
		<path class="st18" d="M248.5,680.1c-0.2,0-0.3,0-0.5-0.1c-0.8-0.3-1.2-1.1-0.9-1.9l2.3-6.3c0.3-0.8,1.1-1.2,1.9-0.9
			c0.8,0.3,1.2,1.1,0.9,1.9l-2.3,6.3C249.7,679.7,249.2,680.1,248.5,680.1z"/>
		<path class="st18" d="M258,681.4c-0.2,0-0.3,0-0.5-0.1c-0.8-0.3-1.2-1.1-0.9-1.9l2-5.5c0.3-0.8,1.1-1.2,1.9-0.9
			c0.8,0.3,1.2,1.1,0.9,1.9l-2,5.5C259.2,681,258.6,681.4,258,681.4z"/>
	</g>
	<polygon class="st13" points="83.1,644.5 100.4,613.2 124.7,629.3 107,656.8 	"/>
	<g>
		<path class="st24" d="M86.2,638.7l23.2,13.9l22,37.8c2.3,4,2.1,9-0.7,12.7l-0.5,0.6c-1.3,1.8-3.8,2.1-5.5,0.8l-53.3-39
			c-1.8-1.3-2.2-3.9-0.9-5.7L86.2,638.7z"/>
		<path class="st18" d="M70.6,660l1.9-2.6l59,44.7l-1.3,1.8c-1.3,1.8-3.8,2.1-5.5,0.8l-53.3-39C69.6,664.3,69.3,661.8,70.6,660z"/>
		<circle class="st2" cx="106.9" cy="662.1" r="3.4"/>
		<circle class="st2" cx="112.1" cy="670.9" r="3.4"/>
		<circle class="st2" cx="117" cy="678.8" r="3.4"/>
		<path class="st18" d="M106.9,663.6c-0.6,0-1.1-0.3-1.4-0.9c-0.3-0.8,0-1.6,0.8-2l6.1-2.6c0.8-0.3,1.6,0,2,0.8c0.3,0.8,0,1.6-0.8,2
			l-6.1,2.6C107.3,663.5,107.1,663.6,106.9,663.6z"/>
		<path class="st18" d="M112.1,672.4c-0.6,0-1.1-0.3-1.4-0.9c-0.3-0.8,0-1.6,0.8-2l6.1-2.6c0.8-0.3,1.6,0,2,0.8c0.3,0.8,0,1.6-0.8,2
			l-6.1,2.6C112.4,672.4,112.3,672.4,112.1,672.4z"/>
		<path class="st18" d="M117.5,680.3c-0.6,0-1.1-0.3-1.4-0.9c-0.3-0.8,0-1.6,0.8-2l5.4-2.3c0.8-0.3,1.6,0,2,0.8c0.3,0.8,0,1.6-0.8,2
			l-5.4,2.3C117.9,680.3,117.7,680.3,117.5,680.3z"/>
	</g>
	
		<rect x="170.5" y="441.3" transform="matrix(0.9936 0.1134 -0.1134 0.9936 58.2049 -16.1457)" class="st18" width="1" height="124.7"/>
	<path class="st27" d="M166.9,452.6C156,474.4,79.2,625.2,79.2,625.2l55.6,34.9c0,0,61.6-94.6,77.1-122.3c0.1-0.1-0.1-22.7,0-22.8
		C202.3,488.1,167.8,450.6,166.9,452.6z"/>
	<path class="st18" d="M187.8,578.6l-53,81.4c0,0,8.2-63.4,5.9-88c-2.4-24.5-6.9-87.8-6.9-87.8L187.8,578.6z"/>
	<path class="st27" d="M217.4,392.6c-18.3-10.2-41.6-4.6-56.7,7.3c-15.2,12.1-19.4,32.3-18,50.8c1.8,24.5,19,130.5,31.2,130.5
		c29.6,0,42.3-50.4,44.8-77.3C222.5,464,222.2,433.3,217.4,392.6z"/>
	<path class="st27" d="M242.7,651.3c0,0-58.7-236.3-66.9-245c-15.3-16.4-61.1,3.9-61.7,5.1c-8.6,18.6,66.6,256.2,66.6,256.2
		L242.7,651.3z"/>
	
		<rect x="104.2" y="543.2" transform="matrix(0.2463 0.9692 -0.9692 0.2463 689.1332 201.0244)" class="st18" width="222.3" height="0.7"/>
	<path class="st18" d="M180.4,667.8c-0.4-1.2-36.7-121.4-48.2-162.9c-9.8-35.2-18-66.3-19.3-89.1l0.7,0c1.3,22.8,9.5,53.7,19.3,88.9
		c11.5,41.5,47.8,161.6,48.2,162.8L180.4,667.8z"/>
	<path class="st13" d="M185.6,333.2l59.1,45.3l20.5-27.8l-53.4-47.8c-0.1-0.1-0.2-0.2-0.3-0.3C208.2,306.8,190.9,327.2,185.6,333.2z
		"/>
	<path class="st13" d="M263.6,385.2l72.1-28.3l-6.7-26.7l-74.8,21.8l-7.8,21.9C246.3,382.7,255.5,388.7,263.6,385.2z"/>
	<path class="st30" d="M172.6,293.8c-7.4,8.2-8.1,19.8-1.5,26l24.9,23c1.5,1.4,8.8-4.1,16.3-12.3c7.4-8.2,12.2-16,10.7-17.4
		l-24.9-23C191.5,283.9,180.1,285.6,172.6,293.8z"/>
	<path class="st24" d="M221.5,404.5l-109.8,8.4c0,0-1.1-82.3,4.7-107c3.3-14.1,13.8-20.9,20.4-20.9h43.8c9.3,0,20.8,8.4,24.9,22.7
		C211.4,328.5,221.5,404.5,221.5,404.5z"/>
	<path class="st6" d="M157.6,257.7c0,0,1.3,16.3,1.8,27.2c2.2,5.5,18.8,6.6,21.1,2.8l-1.7-21.7L157.6,257.7z"/>
	<path class="st13" d="M190.8,255.3c0,12-5.5,23.1-13.9,23.1c-6.9,0-20.6-11.2-20.6-23.2c0-12,7.5-21.7,16.7-21.7
		C188.5,233.5,190.8,243.3,190.8,255.3z"/>
	<ellipse class="st18" cx="175.3" cy="255.3" rx="1.6" ry="1.9"/>
	<ellipse class="st18" cx="185.9" cy="254.3" rx="1.6" ry="1.9"/>
	<path class="st18" d="M180.2,265.5c-0.9,0-1.7-0.1-2-0.1l0.1-0.7c1.6,0.2,4.1,0.2,4.5-0.3c0,0,0-0.1,0-0.1
		c-0.3-1.4-1.5-5.8-1.5-5.9l0.7-0.2c0.1,0.2,1.2,4.5,1.5,5.9c0.1,0.3,0,0.5-0.2,0.7C182.8,265.3,181.4,265.5,180.2,265.5z"/>
	<path class="st18" d="M179.8,271.4C179.8,271.4,179.8,271.4,179.8,271.4c-1.8,0-3.1-1.4-3.2-1.5l0.6-0.5c0,0,1.1,1.2,2.6,1.3
		c0,0,0,0,0,0c0.9,0,1.7-0.4,2.5-1.3l0.6,0.5C181.9,270.9,180.9,271.4,179.8,271.4z"/>
	<path class="st18" d="M172.1,252.2l-0.6-0.4c0.9-1.2,1.9-1.9,3-2.1c1.8-0.2,3.3,1,3.4,1l-0.5,0.6c0,0-1.3-1.1-2.8-0.9
		C173.7,250.6,172.8,251.1,172.1,252.2z"/>
	<path class="st18" d="M183.4,250.8l-0.6-0.5c0.8-1,1.7-1.6,2.7-1.6c1.5-0.1,2.6,1.1,2.6,1.1l-0.5,0.5c0,0-0.9-0.9-2.1-0.9
		C184.8,249.5,184.1,249.9,183.4,250.8z"/>
	<path class="st30" d="M204.6,335.9c-2.9-1.6-6.1-1.2-9.2-0.4c-3.2,0.9-6.2,1.8-9.4,2.3c-6.5,1-13.2,1.2-19.4,3.8
		c-0.6,0.3-1.1,0.7-1.2,1.3c-0.2,0.3-0.3,0.6-0.3,0.9c0,0.9,0.8,1.9,1.8,1.8c0.9-0.1,1.8-0.2,2.7-0.3c11.5-1.1,23.4-0.7,34.1-5.6
		c0.3-0.1,0.5-0.3,0.6-0.6C205.7,338.7,205.9,336.6,204.6,335.9z"/>
	<path class="st13" d="M332.2,314.6c1.3,2,1,3.7-0.2,5.3c1,0.2,2,0.6,2.6,1.5c1.4,2,0.8,3.9-0.8,5.5c1.3,0.2,2.2,1,2.5,2.8
		c0.3,1.8-0.4,3.2-1.4,4.4c1.8,0.1,2.9,2.2,2,3.8c-2.8,5-18.7,11.7-23.6,13.4c-7.2,2.5-20-18.9-12.4-23.5c0,0,14.9-8.4,14.9-8.5
		C319.7,316.8,328.9,309.6,332.2,314.6z"/>
	<path class="st13" d="M318.9,338.5c-1.6,4.3-1.5,9.5-1.3,13.8c0,0.1,0,0.2,0.1,0.2c-0.2,2.3,2.3,4.2,4.6,2.1
		c2.7-2.4,5.7-5.4,5.7-8.8c0-1.8-2.6-3.8-2-5.6c0.7-2.4,3.7-4,5.7-5.2c3.5-2,3.3-8-0.4-6.5C327.1,330.2,320.6,333.9,318.9,338.5z"/>
	<path class="st13" d="M131.3,330.6l58.5,60.7c5.6,5.8,15.3,1.5,14.9-6.5l10.6-24l-56.9-58.2c-0.2,0-0.3,0-0.5,0
		C153.9,307.1,136.7,325.2,131.3,330.6z"/>
	<path class="st30" d="M121.5,292.3c-7.6,7.5-8.2,19.4-1.4,26.5l25.8,26.8c1.6,1.7,9.1-3.1,16.7-10.6c7.6-7.5,12.5-15,10.9-16.7
		l-25.8-26.8C140.9,284.5,129.1,284.8,121.5,292.3z"/>
	<path class="st18" d="M146.9,346.5C146.9,346.5,146.8,346.5,146.9,346.5c-0.6,0-1-0.2-1.3-0.5l0.7-0.7c0.1,0.1,0.3,0.2,0.6,0.2
		c0,0,0,0,0,0c2.2,0,8.3-3.8,15.4-10.8c8.3-8.2,12-14.9,10.9-16l-25.8-26.8c-3-3.2-7.2-4.9-11.7-5c-5,0-10,2-13.8,5.7l-0.7-0.7
		c3.9-3.9,9.2-6.1,14.5-6c4.8,0.1,9.2,1.9,12.4,5.3l25.8,26.8c2.1,2.2-3.9,10.4-10.9,17.4C156.3,341.9,149.7,346.5,146.9,346.5z"/>
	<path class="st18" d="M196,222.3c-8.1,9.2-35.1-6.6-43.1,12.6c-1.5-2-2.2-4.4-2-7c0.1-1.3-2-1.2-2,0.1c-0.2,3,0.7,5.7,2.4,8.1
		c-2,0.5-3.9,1.1-5.7,2.2c-1.1,0.7,0,2.4,1.1,1.7c1.5-0.9,3.1-1.4,4.8-1.8c-2.3,3-6.8,16.1,7.1,30.4c-0.8-14.2,0.6-19.4,5.2-25.2
		c7-4.2,20.7,3.5,29.1,0C197.5,241.2,201.5,229.1,196,222.3z"/>
	<path class="st13" d="M162.5,256.1c0,3-1.1,5.9-3.8,5.9c-2.7,0-5.3-3-5.9-5.9c-0.6-3,1.2-5.9,3.9-5.9S162.5,253.1,162.5,256.1z"/>
	<g>
		<path class="st13" d="M322.1,344.1c3,1.2,6.9,0,10.4-1.8c1.2-0.9,2.8-2.1,4.1-3.6c2.4-2.6,0.1-6.8,0.1-6.8c1.7-2.5-1-5.6-1-5.6
			c1.9-2.7-2.8-6.2-2.8-6.2c1.5-2.5-0.5-5.1-1.9-5.6c-0.8-0.3-18.3,2-18.1,8.1c0.1,2.4,1.3,3.6,3,3.9c-0.7,0.9-1.2,1.8-1.2,3
			c0,2.5,1.5,3.5,3.6,3.7c-0.9,1.1-1.2,2.4-0.4,3.9c0.7,1.6,2,2.2,3.5,2.4C320.1,341.1,320.5,343.5,322.1,344.1z"/>
		<g>
			<path class="st26" d="M324.8,345.1c-1.1,0-2-0.2-2.9-0.5c-0.8-0.3-1.4-1.1-1.6-2.1c-0.2-0.8,0-1.7,0.4-2.4
				c-1.4-0.4-2.5-1.2-3.1-2.5c-0.6-1.3-0.6-2.6,0-3.7c-2.2-0.4-3.3-1.8-3.3-4.1c0-1,0.3-1.9,0.9-2.7c-1.3-0.5-2.6-1.6-2.7-4.2
				c0-0.3,0.2-0.5,0.5-0.5c0.3,0,0.5,0.2,0.5,0.5c0.1,2,0.9,3.1,2.6,3.5c0.2,0,0.3,0.2,0.4,0.3c0.1,0.2,0,0.3-0.1,0.5
				c-0.7,0.9-1.1,1.8-1.1,2.7c0,2,1,3,3.2,3.2c0.2,0,0.3,0.1,0.4,0.3s0,0.4-0.1,0.5c-0.8,1-0.9,2.2-0.3,3.4c0.6,1.3,1.6,1.9,3.1,2.1
				c0.2,0,0.3,0.2,0.4,0.3c0.1,0.2,0,0.4-0.1,0.5c-0.6,0.6-0.8,1.4-0.6,2.2c0.1,0.6,0.5,1.1,1,1.3c2.4,0.9,5.8,0.4,10-1.8
				c0.2-0.1,0.5,0,0.7,0.2c0.1,0.2,0,0.5-0.2,0.7C329.6,344.3,327,345.1,324.8,345.1z"/>
			<path class="st26" d="M321.5,340.2c-0.2,0-0.4-0.1-0.4-0.3c-0.1-0.2,0-0.5,0.2-0.7l15.2-7.8c0.2-0.1,0.5,0,0.7,0.2s0,0.5-0.2,0.7
				l-15.2,7.8C321.6,340.2,321.6,340.2,321.5,340.2z"/>
			<path class="st26" d="M318.4,333.9c-0.2,0-0.4-0.1-0.5-0.3c-0.1-0.3,0-0.5,0.3-0.7l17.3-7c0.3-0.1,0.5,0,0.7,0.3
				c0.1,0.3,0,0.5-0.3,0.7l-17.3,7C318.5,333.9,318.4,333.9,318.4,333.9z"/>
			<path class="st26" d="M315.9,327.2c-0.2,0-0.4-0.1-0.5-0.3c-0.1-0.3,0-0.5,0.3-0.6l17-6.4c0.3-0.1,0.5,0,0.6,0.3
				c0.1,0.3,0,0.5-0.3,0.6l-17,6.4C316,327.2,316,327.2,315.9,327.2z"/>
		</g>
	</g>
	<g>
		<path class="st12" d="M394.8,522.5l-20-46.7l-95,40.8l-16.7-38.9L288,295.9l12.4-8.9l37.4-16L401,418.2l28.8-12.4l16.8,39.1
			l-12.4,8.9l-16.4,3.5l20,46.7l-12.4,8.9L394.8,522.5z M358,436.7l-34.1-79.3l-19.3,102.2L358,436.7z"/>
		<path class="st21" d="M382.4,531.3l-20-46.7l-95,40.8l-16.7-38.9L288,295.9l37.4-16l63.2,147.2l28.8-12.4l16.8,39.1l-28.8,12.4
			l20,46.7L382.4,531.3z M345.5,445.6l-34.1-79.3l-19.3,102.2L345.5,445.6z"/>
	</g>
	<path class="st13" d="M227,394.1l47.5-8.7l5.4-29l-78.1,2.6l-10.6,33.6C197.7,397.4,218.2,395.2,227,394.1z"/>
	<g>
		<path class="st13" d="M268.1,360.7c-0.3-0.2-0.5-0.5-0.7-0.8c-0.1,0-0.2,0-0.3,0c-1-0.1-2-1.1-1.8-2.2c0.4-2.3,0.8-4.7,1.3-7
			c0.2-1.1,0.4-2.5,1-3.5c0.8-1.1,2.1-1.4,3.3-1.7c4.1-1.2,8.4-2.1,12.6-0.9c0.7,0.2,1.3,1,1.3,1.8c0,0.9-0.4,1.5-1.1,1.9
			c-1.5,0.9-3.1,1.7-4.7,2.3c-1.5,0.5-3,0.8-4.4,1.4c-1.3,0.5-1.6,1.1-1.8,2.6c-0.3,2-0.9,3.9-1.9,5.6
			C270.3,361.2,268.9,361.3,268.1,360.7z"/>
		<g>
			<path class="st13" d="M306,352.1c-8.7-1.8-16.6-1.6-24.4,0.6c-0.1-0.1-0.3-0.2-0.5-0.4c1.7-1.4,15.6-5.3,24.7-4.6
				c3.5,0.3,2.7-6.2-0.8-6.5c-12.3-0.8-31,5.2-38.9,14.7c-2.4,2.9-5,5.7-7.8,8.4c-10,9.7,6.9,28.1,19.7,19.5c3.4-2.3,5.4-9.6,9.2-13
				c4.5-4.2,11.9-2.3,18.2-1.4c3,0.4,2.9-3.8,0.8-5.6c0,0,0.1,0,0.1,0c2.8,0.4,2.9-3.2,1.2-5.2C310.5,358.6,309.5,352.8,306,352.1z"
				/>
		</g>
		<g>
			<path class="st26" d="M307.4,359c0,0-0.1,0-0.1,0c-0.1,0-12.8-3.5-23.5-0.1c-0.3,0.1-0.5-0.1-0.6-0.3c-0.1-0.3,0.1-0.5,0.3-0.6
				c11-3.5,24,0,24.1,0.1c0.3,0.1,0.4,0.3,0.3,0.6C307.9,358.9,307.7,359,307.4,359z"/>
			<path class="st26" d="M285.2,364.5c-0.2,0-0.4-0.1-0.5-0.3c-0.1-0.2,0-0.5,0.2-0.7c7.7-3.7,20.7-0.4,21.2-0.3
				c0.3,0.1,0.4,0.3,0.4,0.6c-0.1,0.3-0.3,0.4-0.6,0.4c-0.1,0-13.2-3.3-20.6,0.2C285.4,364.5,285.3,364.5,285.2,364.5z"/>
			<path class="st26" d="M276.7,385.4c-0.1,0-0.3,0-0.3-0.1c-0.2-0.2-0.2-0.5,0-0.7c3.3-3.4,4.9-6.2,6.4-8.6
				c1.4-2.4,2.6-4.4,4.9-6.2c4.6-3.6,13.5-1.6,13.9-1.5c1.8,0.5,4.9,0.8,5.5-0.3c0.8-1.2-0.6-3.2-1.2-3.9c-0.1-0.1-0.1-0.3-0.1-0.5
				c0-0.2,0.2-0.3,0.3-0.3c0,0,1.6-0.5,2-1.6c0.4-0.9-0.7-2.4-1.1-2.9c-0.1-0.1-0.1-0.3-0.1-0.5c0.1-0.2,0.2-0.3,0.4-0.3
				c0,0,1.3-0.2,1.3-2.5c0-1.7-2.4-2.8-2.8-3c-5-0.8-18-1.3-24.6,0.2c-0.2,0.1-0.5-0.1-0.6-0.3c-0.1-0.2,0-0.5,0.3-0.6
				c0.1-0.1,12.4-5.8,24.9-4.6c1.3,0.1,1.9-0.8,2-1.8c0.2-1.5-0.8-3.4-3-3.7c-4.1-0.7-21.8,1.3-31.5,8.6c-1.7,1.3-3.2,2.7-4.6,4.1
				c-2.1,2.1-3.9,3.8-6,4.6c-0.3,0.1-0.5-0.1-0.6-0.3c-0.1-0.3,0.1-0.5,0.3-0.6c1.9-0.6,3.6-2.4,5.7-4.3c1.4-1.3,2.9-2.9,4.7-4.2
				c10.1-7.6,27.9-9.5,32.3-8.8c2.8,0.5,4,2.8,3.8,4.8c-0.2,1.7-1.5,2.8-3.1,2.6c-7.9-0.7-15.7,1.3-20.3,2.9
				c6.8-0.7,16-0.3,20.5,0.5c0,0,0.1,0,0.1,0c0.1,0.1,3.4,1.4,3.5,3.9c0,2-0.8,2.8-1.4,3.2c0.5,0.8,1.3,2.2,0.8,3.3
				c-0.4,1-1.4,1.6-2,1.9c0.7,1,1.9,3,0.9,4.6c-1.3,2-6.1,0.9-6.6,0.7c-0.1,0-8.8-2-13,1.3c-2.1,1.7-3.2,3.5-4.6,5.9
				c-1.5,2.5-3.2,5.3-6.5,8.8C277,385.3,276.9,385.4,276.7,385.4z"/>
		</g>
	</g>
	<path class="st26" d="M213.3,360.5c-0.3,0-0.5-0.2-0.5-0.5c0-0.3,0.2-0.5,0.5-0.5l49.4-1.5c0.3,0,0.5,0.2,0.5,0.5
		c0,0.3-0.2,0.5-0.5,0.5L213.3,360.5C213.3,360.5,213.3,360.5,213.3,360.5z"/>
	<path class="st26" d="M265.2,357.6c-0.3,0-0.5-0.2-0.5-0.5c0-0.3,0-6.7,2.6-10.2c2.5-3.5,14.9-2.9,16.3-2.8c0.3,0,0.5,0.3,0.5,0.5
		c0,0.3-0.3,0.5-0.5,0.5c-3.7-0.2-13.6-0.2-15.5,2.4c-2.3,3.2-2.4,9.5-2.4,9.6C265.7,357.4,265.4,357.6,265.2,357.6z"/>
</g>
<g>
	<path class="st22" d="M965.8,354.7l-21.2-15.9H805.4c-2.8,0-5-2.3-5-5v-83.3c0-2.8,2.3-5,5-5h163.8c2.8,0,5,2.3,5,5v83.3
		c0,2.8-2.3,5-5,5h-9.3L965.8,354.7z"/>
	<path class="st3" d="M965.8,355.2c-0.1,0-0.2,0-0.3-0.1l-21-15.8h-139c-3.1,0-5.5-2.5-5.5-5.5v-83.3c0-3.1,2.5-5.5,5.5-5.5h163.8
		c3.1,0,5.5,2.5,5.5,5.5v83.3c0,3.1-2.5,5.5-5.5,5.5h-8.6l5.6,15.2c0.1,0.2,0,0.4-0.2,0.6C966,355.1,965.9,355.2,965.8,355.2z
		 M805.4,245.9c-2.5,0-4.5,2-4.5,4.5v83.3c0,2.5,2,4.5,4.5,4.5h139.2c0.1,0,0.2,0,0.3,0.1l19.8,14.8l-5.3-14.3
		c-0.1-0.2,0-0.3,0.1-0.5c0.1-0.1,0.2-0.2,0.4-0.2h9.3c2.5,0,4.5-2,4.5-4.5v-83.3c0-2.5-2-4.5-4.5-4.5H805.4z"/>
</g>
<g>
	<path class="st12" d="M707,653.6v-42h-85.5v-35l78.3-130l12.3-2.7h33.6v132.5h25.9v35.2l-12.3,2.7l-13.6-2.7v42l-12.3,2.7
		L707,653.6z M707,576.4V505l-48,71.4H707z"/>
	<path class="st21" d="M694.6,656.3v-42h-85.5v-35l90.6-132.6h33.6v132.5h25.9v35.2h-25.9v42H694.6z M694.6,579.1v-71.4l-48,71.4
		H694.6z"/>
</g>
<g>
	<path class="st12" d="M575,465.6c-11.4-14.4-27.2-21.7-47.4-21.7c-5.4,0-10.5,0.5-15.2,1.5l0,0l-11,2.4l0.9,0.7
		c-8.6,3.5-15.9,9.1-21.9,16.7c-13.7,17.3-20.5,45.6-20.5,84.9c0,40.1,6.2,67.9,18.7,83.6c12.4,15.6,28.8,23.4,49.2,23.4
		c1.6,0,3.2-0.1,4.8-0.2l0.2,0.8l10.2-2.2l0,0c13.1-2.8,23.8-9.4,32.1-19.8c13.7-17.3,20.5-45.7,20.5-85.2
		C595.4,511,588.6,482.7,575,465.6z M549.4,602.8c-2.1,8-5,13.5-8.8,16.6c-3.8,3.1-8.1,4.6-13,4.6s-9.1-1.5-12.9-4.6
		c-3.8-3-6.9-9.1-9.3-18.3c-2.5-9.2-3.7-26-3.7-50.5c0-24.5,1.4-41.9,4.1-52.3c2.1-8,5-13.5,8.8-16.6c3.8-3.1,8.1-4.6,13-4.6
		s9.1,1.5,12.9,4.6c3.8,3.1,6.9,9.2,9.3,18.4c2.5,9.2,3.7,26,3.7,50.5C553.5,575.1,552.1,592.5,549.4,602.8z"/>
	<path class="st21" d="M515.2,446.6c20.2,0,36,7.2,47.4,21.7c13.6,17.1,20.4,45.4,20.4,85.1c0,39.5-6.8,67.9-20.5,85.2
		c-11.3,14.2-27.1,21.4-47.3,21.4c-20.3,0-36.7-7.8-49.2-23.4c-12.4-15.6-18.7-43.5-18.7-83.6c0-39.3,6.8-67.6,20.5-84.9
		C479.2,453.7,495,446.6,515.2,446.6z M515.2,479.8c-4.8,0-9.2,1.5-13,4.6c-3.8,3.1-6.7,8.6-8.8,16.6c-2.8,10.4-4.1,27.8-4.1,52.3
		c0,24.5,1.2,41.3,3.7,50.5c2.5,9.2,5.6,15.3,9.3,18.3c3.8,3,8,4.6,12.9,4.6c4.8,0,9.2-1.5,13-4.6c3.8-3.1,6.7-8.6,8.8-16.6
		c2.8-10.3,4.1-27.6,4.1-52.1c0-24.5-1.2-41.3-3.7-50.5c-2.5-9.2-5.6-15.3-9.3-18.4C524.4,481.3,520.1,479.8,515.2,479.8z"/>
</g>
<g>
	<g>
		<g>
			<polygon class="st30" points="898.4,703.2 895.1,703.2 900.6,613.5 907.4,613.5 			"/>
			<polygon class="st30" points="936.1,703.2 932.8,703.2 938.3,613.5 945.2,613.5 			"/>
			<polygon class="st30" points="1042.3,703.2 1045.5,703.2 1041.7,613.5 1034.8,613.5 			"/>
			<polygon class="st30" points="1004.6,703.2 1007.8,703.2 1003.9,613.5 997.1,613.5 			"/>
			<path class="st29" d="M896,617c1.9-10.1,11.2-49.5,37.9-50.1c26.7-0.6,35.7,39.8,37.5,50.1h4.8c-0.7-4.2-2.8-15.2-7.7-26.4
				c-8.2-18.9-20.2-28.6-34.7-28.4c-14.4,0.3-26.5,10.3-34.8,28.9c-4.9,11-7.2,21.8-7.9,25.9H896z"/>
			<path class="st31" d="M1052.1,466l-5.7,112.9l-17.8,25.1l-39.8,3c-0.7,7.4-1.2,12-1.2,12h-98c0,0-5.5-12.5,0-25.5
				c3.8-8.8,33.5-9.8,52.1-9.6c8.8,0.1,15.1,0.5,15.1,0.5s0-0.1,0-0.4c0.2-5.7,7.8-108.1,19.8-117.6v0c0.2-0.2,0.5-0.3,0.8-0.5
				c0.2-0.1,0.4-0.2,0.6-0.3c0.1,0,0.1-0.1,0.2-0.1c0,0,0.1,0,0.1,0c5.9-2.2,22.8-3.3,39.6-3.1
				C1031.1,462.7,1044.2,463.8,1052.1,466z"/>
			<path class="st24" d="M1052.1,466l-5.7,112.9l-17.8,25.1l-39.8,3c-0.7,7.4-1.2,12-1.2,12H899c0,0-5.5-12.5,0-25.5
				c3.1-7.4,24.9-9.3,42.8-9.6c5.6-0.1,10.9,0,15.1,0.1c5.7,0.2,9.4,0.4,9.4,0.4s7.2-108.1,19.8-117.9v0c0.2-0.2,0.5-0.3,0.8-0.5
				c0.2-0.1,0.4-0.2,0.6-0.3c0.1,0,0.1-0.1,0.2-0.1c0.1,0,0.1,0,0.2,0c4.8-1.8,16.9-2.9,30.3-3.1
				C1031.1,462.7,1044.2,463.8,1052.1,466z"/>
			<path class="st30" d="M1043.3,619h-98c0,0-5.5-12.5,0-25.5c5.5-12.9,80-0.4,80-0.4s11.4-128.3,26.8-127.2
				c4.1,0.3,6.9,3.2,8.7,7.8C1071.1,500.2,1043.3,619,1043.3,619z"/>
		</g>
		<g>
			<path class="st23" d="M1043.3,619h-95.4c-0.9-4.9,86.9-5.6,86.9-5.6s21.9-63.1,26-139.7C1071.1,500.2,1043.3,619,1043.3,619z"/>
		</g>
	</g>
	<g>
		<path class="st18" d="M1078.8,472c-0.2-1.7-0.7-3.4-1.5-4.9c-0.6-1.1-2.3-1.3-3.1-0.4c-2.5,2.8-6.1,3.9-9.8,3.7
			c-3.9-0.2-7.5-2.2-10.2-5c-6.6-6.6-8.5-16.6-9.1-25.6c-0.6-10.6,0.5-21.3-1-31.9c-1.2-8.8-4.5-17.8-11.2-24
			c-5-4.6-11.9-7.2-18.6-6.6c-5.9-0.1-12.6,1.9-16.4,6.4c-1.2,1.4-1.9,3.3-1.4,5.1c0.4,1.6,1.6,2.7,2.9,3.6c2.5,1.8,5.3,2.6,6.7,5.4
			c1.4,2.7,1.4,6.1,1.2,9c-0.3,4-1.1,7.9-1.6,11.8c-1.1,9-1.5,18.1-0.1,27c1.2,7.3,3.9,14.3,7.8,20.6c7.6,12,19.7,21.5,33.5,25.1
			c7.5,2,16.4,2.2,23.2-2.3C1075.6,485.5,1079.5,478.7,1078.8,472z"/>
		<g>
			<path class="st13" d="M851.2,627.7c-5.2,4.8-13.4,13.9-14.8,15.8c0,0,0,0.1-0.1,0.1c-4.6,6.1-7.8,8.4-12.5,10.6
				c1.9-12.4-3-18.3-15.3-25c-11.5-6.3-27.2-16.9-24.9-16.4c8.8,1.5,15.7,7,25.9,5.5c0.8-0.1,1.5-0.3,2.2-0.5
				c1.5-0.5,12.1-8.6,17.7-13.9C830.7,604.8,845.1,620,851.2,627.7z"/>
			<path class="st20" d="M819.8,656.5c-0.7,0.1-1.2,0.1-1.5-0.1c-2.9-2.4,3.5-11.1,1.1-12.1c-31.7-12.8-44.5-27.5-44.9-30.8
				c-0.1-0.8,0.1-1.4,0.6-1.8c2.3-2.2,9.8-1.2,12.6-0.2c8.7,2.8,8.3,3.8,22,6.7c0,0,8.1,18.2,26.7,25.3c0,0,0,0.1-0.1,0.1
				C830.9,651.7,823.1,655.9,819.8,656.5z"/>
			<path class="st8" d="M818.3,656.4c-2.9-2.4,3.5-11.1,1.1-12.1c-31.7-12.8-44.5-27.5-44.9-30.8c-0.1-0.8,0.1-1.4,0.6-1.8
				c11.7,13.3,19.6,17.9,35.1,25.2c11.7,5.6,14.3,3.9,9.4,16.6C819.6,654,818.5,656.6,818.3,656.4z"/>
		</g>
		<g>
			<path class="st13" d="M904.1,663.1c-1,7-1.6,19.2-1.5,21.6c0,0,0,0,0,0.1c0.3,7.6-0.8,11.5-3,16.1c-6.4-10.8-13.9-12.2-27.6-9.7
				c-12.9,2.4-31.7,4.1-29.6,3c7.7-4.4,16.6-4.5,23.5-12.1c0.6-0.6,1-1.2,1.4-1.8c0.9-1.4,3.9-14.3,4.9-21.9
				C873.7,658.3,894.5,661,904.1,663.1z"/>
			<path class="st20" d="M897.9,705.3c-0.5,0.6-0.9,0.9-1.2,0.9c-3.8,0-4.3-10.8-6.8-10.1c-32.7,10.1-51.8,6.8-54.3,4.5
				c-0.6-0.5-0.8-1.1-0.7-1.8c0.4-3.1,6.9-7.1,9.6-8.1c8.5-3.3,8.8-2.3,21.3-8.7c0,0,17.8,9,36.7,2.7c0,0,0,0,0,0.1
				C903.5,694.6,900.1,702.8,897.9,705.3z"/>
			<path class="st8" d="M896.7,706.2c-3.8,0-4.3-10.8-6.8-10.1c-32.7,10.1-51.8,6.8-54.3,4.5c-0.6-0.5-0.8-1.1-0.7-1.8
				c17.5,2.9,26.5,1.4,43.1-2.7c12.6-3.1,13.6-6,17.8,6.9C896.2,703.5,897,706.2,896.7,706.2z"/>
		</g>
		<g>
			<path class="st13" d="M954.8,482.6l-47.6,29.8l-18.3-25.5l48.8-32.1c0.1-0.1,0.2-0.1,0.3-0.2C940,458.5,951.3,477.1,954.8,482.6z
				"/>
			<path class="st13" d="M888.2,504L873.2,428l21.6-5.8l22.2,83.8l-9.9,6.3C899.6,517.2,889.7,512.8,888.2,504z"/>
			<path class="st28" d="M975.9,449.1c5,7.5,2.9,17.7-4.7,22.6l-28.3,18.7c-1.8,1.2-7.2-4-12.2-11.6c-5-7.5-7.6-14.6-5.8-15.8
				l28.3-18.7C960.8,439.5,970.9,441.6,975.9,449.1z"/>
		</g>
		<path class="st22" d="M913.6,539.6l97.7,20.8c0,0,8.6-73.2,9.7-98.5c0.6-14-7.8-21.1-14.4-21.1h-38.4c-9.3,0-15.9,2.9-22.7,17
			C936.1,477.3,913.6,539.6,913.6,539.6z"/>
		<path class="st6" d="M991.1,413.6c0,0-1.3,16.3-1.8,27.2c-2.2,5.5-15.6,7-17.8,3.2l1.7-21.7L991.1,413.6z"/>
		<path class="st13" d="M959,411.1c0,12,4.9,21.7,13.3,21.7c6.9,0,20.2-9.7,20.2-21.7c0-12-7.5-21.7-16.7-21.7
			C966.5,389.4,959,399.1,959,411.1z"/>
		<ellipse class="st18" cx="973.4" cy="411.2" rx="1.6" ry="1.9"/>
		<ellipse class="st18" cx="962.8" cy="410.2" rx="1.6" ry="1.9"/>
		<path class="st18" d="M968.5,421.4c-1.2,0-2.6-0.1-3.1-0.7c-0.2-0.2-0.3-0.5-0.2-0.7c0.3-1.4,1.5-5.7,1.5-5.9l0.7,0.2
			c0,0-1.2,4.5-1.5,5.9c0,0,0,0.1,0,0.1c0.4,0.5,2.9,0.5,4.5,0.3l0.1,0.7C970.3,421.3,969.5,421.4,968.5,421.4z"/>
		<path class="st18" d="M968.9,427.3c-1.1,0-2.1-0.5-3-1.5l0.6-0.5c0.8,0.8,1.6,1.3,2.5,1.3c1.5,0,2.6-1.2,2.6-1.3l0.6,0.5
			C972.1,425.9,970.8,427.3,968.9,427.3C969,427.3,968.9,427.3,968.9,427.3z"/>
		<path class="st18" d="M976.6,408.1c-0.7-1-1.6-1.6-2.5-1.7c-1.5-0.2-2.8,0.9-2.8,0.9l-0.5-0.6c0.1-0.1,1.5-1.3,3.4-1
			c1.2,0.1,2.2,0.8,3,2.1L976.6,408.1z"/>
		<path class="st18" d="M965.3,406.7c-0.7-0.9-1.4-1.3-2.2-1.3c-1.1-0.1-2.1,0.9-2.1,0.9l-0.5-0.5c0,0,1.1-1.2,2.6-1.1
			c1,0,1.9,0.6,2.7,1.6L965.3,406.7z"/>
		<path class="st10" d="M879.5,613.3l113.4-20.4c13-2.3,21.7-14.8,19.4-27.9l0,0c-2.3-13-14.8-21.7-27.9-19.4l-100,18
			c-7.4,1.3-12.3,8.4-10.9,15.7L879.5,613.3z"/>
		<path class="st10" d="M889.3,563.8l94.6,28.4c13,2.7,25.7-5.6,28.4-18.6l0,0c2.7-13-5.6-25.7-18.6-28.4l-99.5-20.7
			c-7.3-1.5-14.5,3.2-16,10.5L889.3,563.8z"/>
		<path class="st10" d="M813.1,604.7l36.5,36.1l8.5-10l3.9-4.6l63.9-75.6l-25.7-22.9c-5.6-5-14.2-4.5-19.2,1.1l-53.4,59.6l-4,4.5
			L813.1,604.7z"/>
		<path class="st10" d="M853,669.8l56.5,6.1l1.4-10l0.8-5.9l11.8-84.2l-32.4-11.6c-7.1-2.5-14.8,1.2-17.3,8.2l-17.6,82.4l-1,4.7
			L853,669.8z"/>
		<path class="st18" d="M862.8,625.7l-0.7-0.1l9.1-50.6c0.8-4.3,3.4-8.1,7.1-10.4s8.3-2.8,12.5-1.5l93.2,28.8l-0.2,0.7l-93.2-28.8
			c-4-1.2-8.3-0.7-11.9,1.5c-3.6,2.2-6,5.8-6.8,9.9L862.8,625.7z"/>
		<path class="st13" d="M1029.8,467.1l24.8,50.4l-27.2,15.6l-27-51.7c-0.1-0.1-0.1-0.2-0.2-0.4
			C1004.3,479.4,1024,470.1,1029.8,467.1z"/>
		<path class="st13" d="M1044.4,535.4l-77.1,7.4l-3.6-22.1l85.6-13.7l5.3,10.4C1058.7,525.4,1053.3,534.9,1044.4,535.4z"/>
		<path class="st28" d="M998.6,442.8c8-4.2,17.9-1.1,22.1,6.9l15.7,30.1c1,1.9-4.7,6.8-12.7,11c-8,4.2-15.3,6.1-16.3,4.2l-15.7-30.1
			C987.5,456.8,990.6,447,998.6,442.8z"/>
		<path class="st18" d="M1009.4,496c-1.1,0-2-0.2-2.3-0.9L991.3,465c-2.1-4-2.5-8.5-1.1-12.7c1.3-4.3,4.2-7.8,8.2-9.8l0.3,0.7
			c-3.8,2-6.6,5.3-7.8,9.4s-0.9,8.4,1.1,12.2l15.7,30.1c0.3,0.5,1.8,0.8,5.1,0c3-0.8,6.8-2.3,10.7-4.3s7.3-4.3,9.7-6.3
			c2.6-2.2,3.2-3.6,2.9-4.2l0.7-0.3c0.7,1.4-1.3,3.5-3.1,5.1c-2.4,2.1-5.9,4.4-9.8,6.4c-3.9,2-7.7,3.6-10.8,4.4
			C1011.8,495.7,1010.5,496,1009.4,496z"/>
		<path class="st13" d="M926.2,521.1c0,0-2.2,1.3-1.8,2.5c0.4,1.2,2.9,1,2.9,1s-2.3,1.2-1.9,2.6c0.4,1.5,2.6,0.9,2.6,0.9
			s-2.4,1.6-1.7,3c0.7,1.4,3.3,0.5,3.3,0.5s-2.4,0.9-2.2,1.9c0.4,1.9,2.5,1.3,2.5,1.3l4.1-3.1l-1.2-10.5H926.2z"/>
		<path class="st18" d="M927.9,502l-0.7-0.3c0.1-0.3,12.9-32.8,19.5-47.3c6.4-14.1,19.8-15.3,20-15.3l0.1,0.7
			c-0.1,0-13.1,1.2-19.3,14.9C940.9,469.2,928.1,501.7,927.9,502z"/>
		<g>
			<path class="st13" d="M874,432.4c0,0-0.4-4.8-3.6-6.3s-7.1-4.7-8.4-6.4c-3.8-4.8-7.1-11-7.1-11l12.4-7.8l8.7,9.9
				c0,0,13.3,2.6,16.3,5.1s2.6,11,2.6,11L874,432.4z"/>
			<path class="st13" d="M866.9,401.1c0,0-1.9-1.7-2.9-1.2s0,2.8,0,2.8s-1.8-1.9-3.1-1.3c-1.2,0.6-0.1,2.5-0.1,2.5s-2.2-1.8-3.3-1
				s0,3.4,0,3.4s-1.2-1.1-2-0.8c-1.7,0.7-0.7,3.1-0.7,3.1l4.7,1.3l9.4-3.1L866.9,401.1z"/>
			<path class="st26" d="M874,432.9c-0.2,0-0.4-0.2-0.5-0.4c-0.9-4.5-3.8-6.4-6.9-8.4c-0.8-0.5-1.5-1-2.3-1.5c-2.5-1.8-5.6-6-9.6-13
				c-0.5-0.8-0.7-1.7-0.6-2.5c0.1-1.2,0.7-1.7,1.1-2c0.5-0.2,0.9-0.2,1.4,0c-0.2-0.9-0.2-2,0.6-2.6c0.8-0.6,1.8-0.3,2.7,0.1
				c0-0.3,0-0.6,0-0.8c0.1-0.4,0.4-0.7,0.8-0.9c0.8-0.4,1.7-0.1,2.4,0.3c-0.1-0.7,0-1.5,0.6-1.9c1.2-0.7,3.1,0.9,3.5,1.2
				c0.2,0.2,0.2,0.5,0,0.7c-0.2,0.2-0.5,0.2-0.7,0c-0.7-0.6-1.9-1.4-2.3-1.1c-0.4,0.2-0.1,1.4,0.2,2.2c0.1,0.2,0,0.5-0.2,0.6
				c-0.2,0.1-0.5,0.1-0.6-0.1c-0.4-0.4-1.7-1.5-2.5-1.2c-0.1,0.1-0.2,0.2-0.3,0.3c-0.1,0.4,0.2,1.2,0.4,1.5c0.1,0.2,0.1,0.5-0.1,0.6
				s-0.5,0.2-0.6,0c-0.6-0.5-2.1-1.4-2.7-1c-0.6,0.5-0.1,2.1,0.2,2.8c0.1,0.2,0,0.5-0.2,0.6c-0.2,0.1-0.5,0.1-0.6-0.1
				c-0.4-0.4-1.1-0.9-1.5-0.7c-0.1,0.1-0.5,0.3-0.6,1.1c0,0.6,0.1,1.3,0.5,1.9c3.8,6.7,6.9,11,9.3,12.7c0.7,0.5,1.5,1,2.2,1.5
				c3.1,2,6.4,4.1,7.4,9C874.6,432.6,874.4,432.8,874,432.9C874.1,432.9,874.1,432.9,874,432.9z"/>
			<path class="st26" d="M871.9,412.8c-0.1,0-0.3-0.1-0.4-0.2l-7.8-9.6c-0.2-0.2-0.1-0.5,0.1-0.7c0.2-0.2,0.5-0.1,0.7,0.1l7.8,9.6
				c0.2,0.2,0.1,0.5-0.1,0.7C872.1,412.8,872,412.8,871.9,412.8z"/>
			<path class="st26" d="M868.5,414.8c-0.2,0-0.3-0.1-0.4-0.2l-7.6-10.4c-0.2-0.2-0.1-0.5,0.1-0.7c0.2-0.2,0.5-0.1,0.7,0.1l7.6,10.4
				c0.2,0.2,0.1,0.5-0.1,0.7C868.7,414.8,868.6,414.8,868.5,414.8z"/>
			<path class="st26" d="M865.5,417c-0.1,0-0.3-0.1-0.4-0.2l-7.9-10.1c-0.2-0.2-0.1-0.5,0.1-0.7c0.2-0.2,0.5-0.1,0.7,0.1l7.9,10.1
				c0.2,0.2,0.1,0.5-0.1,0.7C865.7,417,865.6,417,865.5,417z"/>
			<path class="st13" d="M895.5,424.9c0,0-2.5-14-5.3-16.5c-1.8-1.6-7-3.6-9.6-3c-2.5,0.6-1.6,2.5,1,3.7c2.5,1.2,4.1,5.1,4,6.5
				C885.4,416.9,895.5,424.9,895.5,424.9z"/>
			<path class="st26" d="M880.6,419.5c-0.3,0-0.5-0.2-0.5-0.5c-0.3-4.8,4.5-6.5,4.6-6.5c0.3-0.1,0.5,0,0.6,0.3s0,0.5-0.3,0.6
				c-0.2,0.1-4.2,1.5-3.9,5.5C881.1,419.2,880.9,419.5,880.6,419.5C880.6,419.5,880.6,419.5,880.6,419.5z"/>
		</g>
		<path class="st4" d="M882.1,541.4c0.2,0.2,0.5,0.2,0.7,0.1c1.9-1.2,2.7-3.4,4.2-5.1c0.2-0.3,0.5-0.5,0.8-0.8
			c0.6-0.3,1.1-0.6,1.7-0.9c1.3-0.7,2.7-1.3,4-2.2c0.7-0.5,1.9-1.4,1.7-2.4c-0.1-1.1-1.5-0.9-2.3-0.8c-2.1,0.3-4.1,0.6-6.1,1.5
			c-2,0.9-3.5,2.4-4.3,4.4C881.7,537.1,880.6,539.8,882.1,541.4z"/>
		<path class="st28" d="M938.7,491.7c2.9-1.6,6.1-1.2,9.2-0.4c3.2,0.9,6.2,1.8,9.4,2.3c6.5,1,13.2,1.2,19.4,3.8
			c0.6,0.2,1.1,0.7,1.2,1.3c0.2,0.3,0.3,0.6,0.3,0.9c0,0.9-0.8,1.9-1.8,1.8c-0.9-0.1-1.8-0.2-2.7-0.3c-11.5-1.1-23.4-0.7-34.1-5.6
			c-0.3-0.1-0.5-0.3-0.6-0.6C937.7,494.5,937.5,492.4,938.7,491.7z"/>
		<path class="st18" d="M950.7,393.3c0.2-1.6,0.9-3.1,1.9-4.5c-0.3-2.8,0.9-5.6,3.7-7.2c2.8-1.6,6-1.9,9.1-1.5
			c27.7-10.2,42,8.3,38.3,26.7c-1.2,5.9-7.9,16.2-14.9,10.2c-3.5-3-4.1-9.9-4.8-14c-0.5-2.9-0.8-5.7-0.8-8.5
			c-0.8,0.3-3.6,2.2-4.6,2.3c-3.6,0.3-6.7-2.5-7.6-0.2c-0.5,1.4-1.3,2.2-2.6,2.9c-1.1,0.5-2.1,0.7-3.4,0.4c-2.1-0.5-1.6-0.8-3.6,0.4
			C956.2,403.4,949.7,399.9,950.7,393.3z"/>
		<path class="st13" d="M986.3,412.1c0,3,1.1,5.9,3.8,5.9s5.3-3,5.9-5.9c0.6-3-1.2-5.9-3.9-5.9S986.3,409,986.3,412.1z"/>
		<g>
			<g>
				
					<rect x="851.2" y="531.7" transform="matrix(-0.9978 -6.606475e-002 6.606475e-002 -0.9978 1747.0431 1124.6891)" class="st27" width="81.8" height="3.6"/>
				<polygon class="st0" points="932.8,537.9 970,534.7 970.3,531.1 933,534.4 				"/>
				<polygon class="st30" points="970.3,531.1 877.9,522.3 851.4,529 933,534.4 				"/>
			</g>
			<g>
				<path class="st0" d="M853.7,529.1l81.3,5.4l-7.4-50.7c-0.2-1.5-1.4-2.6-2.8-2.7l-73.2-4.8c-2.9-0.2-5.2,2.5-4.8,5.6L853.7,529.1
					z"/>
				<path class="st27" d="M851.8,529l81.3,5.4l-7.4-50.7c-0.2-1.5-1.4-2.6-2.8-2.7l-74.7-4.9c-2.1-0.1-3.8,1.8-3.5,4.1L851.8,529z"
					/>
				<path class="st0" d="M851.8,529l62.9,4.2l-39.3-55.4l-27.2-1.8c-2.1-0.1-3.8,1.8-3.5,4.1L851.8,529z"/>
			</g>
		</g>
		<g>
			<path class="st13" d="M964.4,520.8c0,0-9.5-0.3-12.9-1.6c-3.4-1.3-9.1-2.9-11.3-2.6c-6.1,0.6-13.3,4.6-13.3,4.6l-1.8,2.5l2.4,1.2
				l-1.5,2.3l2.2,1.2l-1.3,2.7l2.4,0.8l-1.6,2l2.7,0.9l14.8-1.7c0,0,9.4,9.3,13.4,9.8c4,0.4,9.3,0,9.3,0l6.8-6.9l-1.3-9.7
				L964.4,520.8z"/>
			<path class="st26" d="M930,535.4c-0.9,0-2.2-0.4-2.6-1.7c-0.1-0.5,0.1-0.9,0.4-1.3c-0.6-0.1-1.2-0.4-1.5-1c-0.5-1,0.1-2,0.8-2.7
				c-0.7-0.1-1.5-0.5-1.7-1.4c-0.2-0.9,0.3-1.7,0.9-2.3c-0.8-0.1-1.6-0.5-1.9-1.2c-0.5-1.5,1.8-2.9,2.1-3.1c0.2-0.1,0.5-0.1,0.7,0.2
				c0.1,0.2,0.1,0.5-0.2,0.7c-0.8,0.5-1.8,1.4-1.6,1.9c0.2,0.6,1.6,0.7,2.4,0.6c0.2,0,0.5,0.1,0.5,0.4s0,0.5-0.3,0.6
				c-0.5,0.3-1.9,1.2-1.7,2.1c0.2,1,2,0.6,2,0.6c0.2-0.1,0.5,0.1,0.6,0.3c0.1,0.2,0,0.5-0.2,0.6c-0.5,0.4-1.9,1.5-1.5,2.4
				c0.4,0.8,2.1,0.4,2.7,0.2c0.3-0.1,0.5,0,0.6,0.3c0.1,0.3,0,0.5-0.3,0.6c-1.1,0.4-2,1.1-1.9,1.3c0.3,1.2,1.9,1,2,0.9
				c0.3,0,0.5,0.1,0.6,0.4c0,0.3-0.1,0.5-0.4,0.6C930.4,535.3,930.2,535.4,930,535.4z"/>
			<path class="st26" d="M927.9,525.1c-0.2,0-0.4-0.1-0.5-0.4c-0.1-0.3,0.1-0.5,0.3-0.6L938,521c0.3-0.1,0.5,0.1,0.6,0.3
				c0.1,0.3-0.1,0.5-0.3,0.6l-10.2,3.1C928,525.1,928,525.1,927.9,525.1z"/>
			<path class="st26" d="M928.6,528.7c-0.2,0-0.4-0.1-0.5-0.4c-0.1-0.3,0.1-0.5,0.4-0.6l11.2-2.9c0.3-0.1,0.5,0.1,0.6,0.4
				c0.1,0.3-0.1,0.5-0.4,0.6l-11.2,2.9C928.6,528.7,928.6,528.7,928.6,528.7z"/>
			<path class="st26" d="M930.1,532.1c-0.2,0-0.4-0.2-0.5-0.4c-0.1-0.3,0.1-0.5,0.4-0.6l9.6-2.1c0.3-0.1,0.5,0.1,0.6,0.4
				c0.1,0.3-0.1,0.5-0.4,0.6l-9.6,2.1C930.2,532.1,930.2,532.1,930.1,532.1z"/>
			<path class="st13" d="M958.2,520.5c0,0-7.3-4.9-9.4-4.9s-9.6,3.4-9.6,3.4l18.5,5.9L958.2,520.5z"/>
			<path class="st26" d="M964.4,521.3C964.3,521.3,964.3,521.3,964.4,521.3c-1,0-9.7-0.3-11.4-1c-5-1.9-9.1-3.1-11.6-3.3
				c-0.3,0-0.5-0.3-0.5-0.5c0-0.3,0.3-0.5,0.5-0.5c3.5,0.3,8.9,2.2,11.8,3.3c1.3,0.5,8.4,0.8,11.1,0.9c0.3,0,0.5,0.2,0.5,0.5
				C964.8,521.1,964.6,521.3,964.4,521.3z"/>
		</g>
	</g>
	<path class="st30" d="M960,614.6c2.7-12.5,12.3-47.1,37.5-47.6c0.2,0,0.4,0,0.6,0c21.2,0,31.1,25.9,35.1,41.1
		c1-1.4,1.8-3.3,3.1-5.6c0,0,0-0.1,0.1-0.1c-1.1-3.7-2.5-7.7-4.3-11.8c-8.2-18.9-20.2-28.6-34.7-28.4c-14.4,0.3-26.5,10.3-34.8,28.9
		c-4.2,9.4-6.4,18.8-7.5,23.9C956.8,614.9,958.4,614.8,960,614.6z"/>
</g>
<g>
	<g>
		<path class="st4" d="M840.6,296.9l8.3,1.4c-1.1,3-2.8,5.4-5.1,7c-2.3,1.6-5.2,2.4-8.7,2.4c-5.5,0-9.5-1.8-12.2-5.4
			c-2.1-2.9-3.1-6.5-3.1-10.9c0-5.2,1.4-9.3,4.1-12.3s6.2-4.4,10.4-4.4c4.7,0,8.4,1.5,11.1,4.6c2.7,3.1,4,7.8,3.9,14.2l-2.3,0.4
			l-18.6-0.4c0.1,2.5,0.7,4.4,2,5.8c1.3,1.4,2.9,2.1,4.8,2.1c1.3,0,2.4-0.4,3.3-1.1c0.8-0.6-0.7-1.9-0.3-3.1
			C838.4,297.1,840.5,297.2,840.6,296.9z M841.1,288.5c-0.1-2.4-0.7-4.3-1.9-5.5c-1.2-1.3-2.6-1.9-4.3-1.9c-1.8,0-3.3,0.7-4.5,2
			c-1.2,1.3-1.8,3.1-1.8,5.4H841.1z"/>
		<path class="st4" d="M864.1,307l-2.3,0.4l-6.1-0.4l-2.3-31.2l2.3-0.4h7.7v4.5c1.3-2.1,2.5-3.5,3.6-4.2c1.1-0.7,2.3-1,3.6-1
			c1.9,0,3.7,0.5,5.5,1.6l-2.6,7.3c-0.6,0.1-1.5,0.3-2.3,0.4c-1-0.5-0.8-1.7-1.6-1.7c-1.2,0-2.2,0.3-3,1c-0.8,0.6-1.4,1.8-1.9,3.5
			c-0.5,1.7-0.7,5.2-0.7,10.6V307z"/>
		<path class="st4" d="M887.8,307l-2.3,0.4l-6.1-0.4l-2.3-31.2l2.3-0.4h7.7v4.5c1.3-2.1,2.5-3.5,3.6-4.2c1.1-0.7,2.3-1,3.6-1
			c1.9,0,3.7,0.5,5.5,1.6l-2.6,7.3c-0.5,0.1-1.6,0.3-2.3,0.4c-1-0.5-0.7-1.7-1.6-1.7c-1.2,0-2.2,0.3-3,1c-0.8,0.6-1.4,1.8-1.9,3.5
			c-0.5,1.7-0.7,5.2-0.7,10.6V307z"/>
		<path class="st4" d="M901.5,290.8c0-2.8,0.7-5.5,2-8c1.4-2.6,3.3-4.6,5.8-5.9c2.5-1.4,5.3-2,8.4-2c4.8,0,8.7,1.5,11.7,4.6
			c3,3.1,4.6,7,4.6,11.7c0,4.8-1.5,8.7-4.6,11.9c-3.1,3.1-7,4.7-11.6,4.7c-2.9,0-5.6-0.7-8.3-2s-4.6-3.2-6-5.7
			C902.2,297.5,901.5,294.4,901.5,290.8z M910.1,291.2c0,3.1,0.7,5.5,2.2,7.2c1.5,1.7,3.3,2.5,5.5,2.5c2.2,0,4-0.8,5.5-2.5
			c1.5-1.7,2.2-4.1,2.2-7.2c0-3.1-0.7-5.5-2.2-7.1c-1.5-1.7-3.3-2.5-5.5-2.5c-2.2,0-4,0.8-5.5,2.5
			C910.8,285.7,910.1,288.1,910.1,291.2z"/>
		<path class="st4" d="M948.6,307l-2.3,0.4l-6.1-0.4l-2.3-31.2l2.3-0.4h7.7v4.5c1.3-2.1,2.5-3.5,3.6-4.2c1.1-0.7,2.3-1,3.6-1
			c1.9,0,3.7,0.5,5.5,1.6l-2.6,7.3c-0.7,0.2-1.6,0.4-2.3,0.4c-1-0.5-0.8-1.7-1.6-1.7c-1.2,0-2.2,0.3-3,1c-0.8,0.6-1.4,1.8-1.9,3.5
			c-0.5,1.7-0.7,5.2-0.7,10.6V307z"/>
	</g>
	<g>
		<path class="st10" d="M838.3,297.3l8.3,1.4c-1.1,3-2.8,5.4-5.1,7c-2.3,1.6-5.2,2.4-8.7,2.4c-5.5,0-9.5-1.8-12.2-5.4
			c-2.1-2.9-3.1-6.5-3.1-10.9c0-5.2,1.4-9.3,4.1-12.3c2.7-3,6.2-4.4,10.4-4.4c4.7,0,8.4,1.5,11.1,4.6c2.7,3.1,4,7.8,3.9,14.2h-20.9
			c0.1,2.5,0.7,4.4,2,5.8c1.3,1.4,2.9,2.1,4.8,2.1c1.3,0,2.4-0.4,3.3-1.1S837.9,298.9,838.3,297.3z M838.8,288.9
			c-0.1-2.4-0.7-4.3-1.9-5.5c-1.2-1.3-2.6-1.9-4.3-1.9c-1.8,0-3.3,0.7-4.5,2c-1.2,1.3-1.8,3.1-1.8,5.4H838.8z"/>
		<path class="st10" d="M861.9,307.3h-8.3v-31.5h7.7v4.5c1.3-2.1,2.5-3.5,3.6-4.2c1.1-0.7,2.3-1,3.6-1c1.9,0,3.7,0.5,5.5,1.6
			l-2.6,7.3c-1.4-0.9-2.7-1.4-3.9-1.4c-1.2,0-2.2,0.3-3,1c-0.8,0.6-1.5,1.8-1.9,3.5c-0.5,1.7-0.7,5.2-0.7,10.6V307.3z"/>
		<path class="st10" d="M885.5,307.3h-8.3v-31.5h7.7v4.5c1.3-2.1,2.5-3.5,3.6-4.2c1.1-0.7,2.3-1,3.6-1c1.9,0,3.7,0.5,5.5,1.6
			l-2.6,7.3c-1.4-0.9-2.7-1.4-3.9-1.4c-1.2,0-2.2,0.3-3,1c-0.8,0.6-1.4,1.8-1.9,3.5c-0.5,1.7-0.7,5.2-0.7,10.6V307.3z"/>
		<path class="st10" d="M899.3,291.1c0-2.8,0.7-5.5,2-8c1.4-2.6,3.3-4.6,5.8-5.9c2.5-1.4,5.3-2,8.4-2c4.8,0,8.7,1.5,11.7,4.6
			c3,3.1,4.6,7,4.6,11.7c0,4.8-1.5,8.7-4.6,11.9c-3.1,3.1-7,4.7-11.6,4.7c-2.9,0-5.6-0.7-8.3-2c-2.6-1.3-4.6-3.2-6-5.7
			C899.9,297.8,899.3,294.7,899.3,291.1z M907.8,291.6c0,3.1,0.7,5.5,2.2,7.2c1.5,1.7,3.3,2.5,5.5,2.5c2.2,0,4-0.8,5.5-2.5
			c1.5-1.7,2.2-4.1,2.2-7.2c0-3.1-0.7-5.5-2.2-7.1c-1.5-1.7-3.3-2.5-5.5-2.5c-2.2,0-4,0.8-5.5,2.5
			C908.6,286,907.8,288.4,907.8,291.6z"/>
		<path class="st10" d="M946.3,307.3H938v-31.5h7.7v4.5c1.3-2.1,2.5-3.5,3.6-4.2c1.1-0.7,2.3-1,3.6-1c1.9,0,3.7,0.5,5.5,1.6
			l-2.6,7.3c-1.4-0.9-2.7-1.4-3.9-1.4c-1.2,0-2.2,0.3-3,1c-0.8,0.6-1.4,1.8-1.9,3.5c-0.5,1.7-0.7,5.2-0.7,10.6V307.3z"/>
	</g>
</g>
</svg>
